<svg xmlns="http://www.w3.org/2000/svg" xmlns:xlink="http://www.w3.org/1999/xlink" version="1.1" x="0px" y="0px" viewBox="0 0 50 62.5" enable-background="new 0 0 50 50" xml:space="preserve"><path d="M34.842,25.155l1.352-1.352c4.583-4.584,1.348-12.479-5.173-12.479c-3.418,0-5.055,2.022-6.521,3.488  c-1.451-1.451-3.095-3.493-6.52-3.493c-6.459,0-9.785,7.873-5.173,12.484l1.352,1.352c-1.453,1.452-3.498,3.1-3.498,6.524  c0,1.946,0.762,3.78,2.146,5.164c1.381,1.381,3.218,2.142,5.173,2.142s3.792-0.761,5.173-2.142l1.347-1.347l1.347,1.347  c4.547,4.547,12.488,1.378,12.488-5.169C38.335,28.242,36.277,26.591,34.842,25.155z M32.656,33.307  c-0.868,0.868-2.403,0.867-3.272,0l-1.346-1.347l3.271-3.263C32.31,29.697,34.545,31.418,32.656,33.307z M15.672,31.675  c0-1.186,0.661-1.62,2.027-2.979l3.264,3.264l-1.346,1.347C18.244,34.68,15.672,33.806,15.672,31.675z M19.617,17.003l1.346,1.347  l-3.273,3.273l-1.345-1.345C14.175,18.087,17.484,14.871,19.617,17.003z M32.656,20.276l-1.348,1.346  c-0.643-0.643-2.702-2.702-3.271-3.272l1.347-1.347c0.875-0.874,2.399-0.874,3.271-0.001C33.55,17.905,33.55,19.375,32.656,20.276z   M24.5,28.424l-3.272-3.264l3.272-3.272l3.27,3.27L24.5,28.424z M31.021,12.325c5.621,0,8.431,6.806,4.465,10.772l-8.155,8.155  l-2.122-2.123l3.272-3.263l0,0c0.235-0.236,0.436-0.435,0.708-0.707l-0.001-0.001c2.996-2.997,2.062-2.062,4.178-4.178  c1.279-1.292,1.279-3.393-0.002-4.686c-1.253-1.254-3.436-1.253-4.687,0l-1.347,1.347l-2.123-2.123  C26.672,14.055,28.05,12.325,31.021,12.325z M13.514,23.097C9.537,19.12,12.4,12.32,17.98,12.32c3.335,0,4.031,1.418,12.622,10.009  l-2.124,2.121c-8.783-8.781-8.674-9.125-10.498-9.125c-2.943,0-4.408,3.576-2.343,5.659l1.346,1.347l-2.118,2.118L13.514,23.097z   M17.98,37.985c-3.513,0-6.32-2.85-6.32-6.306c0-2.966,1.744-4.356,3.205-5.817l0.005,0.005c3.909-3.923,2.358-2.37,6.799-6.811  l2.123,2.123l-3.273,3.273l0,0c-0.478,0.48-0.319,0.321-0.707,0.708l0,0c-4.392,4.392-5.14,4.761-5.14,6.514  c0,1.863,1.506,3.311,3.308,3.311c1.675,0,2.405-1.032,3.69-2.318l2.123,2.123C22.333,36.25,20.954,37.985,17.98,37.985z   M26.554,36.137l-8.147-8.147l2.114-2.122l8.156,8.146c2.069,2.069,5.65,0.625,5.65-2.339c0-1.678-1.022-2.396-2.311-3.685  l2.123-2.123c1.46,1.46,3.195,2.84,3.195,5.808C37.335,37.327,30.479,40.06,26.554,36.137z"/></svg>